<svg xmlns="http://www.w3.org/2000/svg" viewBox="0 0 142.87 180.61"><defs><style>.cls-1{isolation:isolate;}.cls-2{opacity:0.3;mix-blend-mode:overlay;}.cls-3{fill:#bcad1e;}.cls-4{fill:#f5eb28;}.cls-5{fill:none;stroke:#000;stroke-linecap:round;stroke-linejoin:round;stroke-width:1.2px;}.cls-6{fill:#ded424;}</style></defs><title>Asset 5</title><g class="cls-1"><g id="Layer_2" data-name="Layer 2"><g id="圖層_5" data-name="圖層 5"><path class="cls-2" d="M119.5,171c0,5.31-23,9.61-51.41,9.61s-51.41-4.3-51.41-9.61,23-9.62,51.41-9.62S119.5,165.68,119.5,171Z"/><path class="cls-3" d="M83.78,63.81s18.76,17.94,28.37,32.09A230.22,230.22,0,0,1,132,131.52,16,16,0,0,1,137,133c2,1.12,1.73,2.62.9,2.95s-5.22-.88-5.22-.88,4.87,2.47,3.91,4.05-5.28-2.46-5.28-2.46,1.76,3.67,0,3.9-2.35-4-2.35-4-1.61,2.64-3.13,1.33c-1.06-.9,2-4.27,2-4.27s-8.44-19.11-18.8-33.5C100,87.65,80.4,66.92,80.4,66.92Z"/><path class="cls-3" d="M60.89,63.51S42.14,81.45,32.53,95.6a230.22,230.22,0,0,0-19.88,35.62,16,16,0,0,0-4.93,1.47c-2,1.11-1.73,2.62-.9,2.95s5.22-.89,5.22-.89-4.88,2.47-3.91,4.06,5.28-2.47,5.28-2.47-1.76,3.67,0,3.9,2.36-3.94,2.36-3.94,1.61,2.63,3.13,1.33c1.06-.9-2-4.28-2-4.28s8.44-19.11,18.8-33.49c9-12.51,28.65-33.25,28.65-33.25Z"/><path class="cls-3" d="M52,104.18a139.82,139.82,0,0,0-4.34,35.2c0,20.28,4.35,32.31,4.35,32.31h3.51S51,155.34,51.11,139.11a156.5,156.5,0,0,1,4.43-34.93Z"/><path d="M50.76,166.8c-2.32-.48-5.4-2.84-8.85-1.17s-2.1,6.06-2.1,6.06l15.84,0L54.42,167A10.45,10.45,0,0,1,50.76,166.8Z"/><path class="cls-3" d="M85.85,104.18a139.27,139.27,0,0,1,4.34,35.2c0,20.28-4.35,32.31-4.35,32.31H82.33s4.56-16.35,4.45-32.58a156.5,156.5,0,0,0-4.43-34.93Z"/><path d="M87.13,166.8c2.32-.48,5.4-2.84,8.85-1.17s2.1,6.06,2.1,6.06l-15.84,0L83.47,167A10.45,10.45,0,0,0,87.13,166.8Z"/><polygon class="cls-4" points="86.95 0 0 76.28 59.2 132.22 53.21 158.49 142.87 80.98 87.21 30.68 86.95 0"/><path d="M47.69,69.2a4.07,4.07,0,1,1-4.06-4.07A4.06,4.06,0,0,1,47.69,69.2Z"/><path d="M102.41,69.2a4.07,4.07,0,1,1-4.07-4.07A4.07,4.07,0,0,1,102.41,69.2Z"/><path class="cls-5" d="M65.94,89.93a8.21,8.21,0,0,0,6.75-.57c3.22-1.77,3.61-4.18,3.61-4.18"/><path class="cls-6" d="M31.15,105.71,59.2,132.22l-6,26.27,45.47-39.3c-1.74.35-3.48.64-5.25.87C71.12,122.94,50.51,115.64,31.15,105.71Z"/></g></g></g></svg>