<svg xmlns="http://www.w3.org/2000/svg" viewBox="0 0 556.37 557.83"><defs><style>.cls-1{fill:none;stroke:#fff;stroke-miterlimit:10;stroke-width:10px;}</style></defs><title>ph_icon</title><g id="Layer_2" data-name="Layer 2"><g id="Layer_2-2" data-name="Layer 2"><rect class="cls-1" x="241.23" y="5" width="34.2" height="128.99" rx="12"/><rect class="cls-1" x="387.6" y="49.02" width="34.2" height="128.99" rx="12" transform="translate(198.8 -252.91) rotate(45)"/><rect class="cls-1" x="104.76" y="57.71" width="34.2" height="128.99" rx="17.1" transform="translate(-50.72 121.96) rotate(-45)"/><rect class="cls-1" x="52.39" y="200.63" width="34.2" height="128.99" rx="12" transform="translate(-195.63 334.61) rotate(-90)"/><rect class="cls-1" x="98.96" y="331.86" width="34.2" height="128.99" rx="12" transform="translate(-82.14 758.69) rotate(-135)"/><path class="cls-1" d="M312.14,162.47c-73.13,8.09-132.4,66.77-147.32,143.12a100.26,100.26,0,0,1-11.64-47c0-58.43,50.21-105.8,112.14-105.8A117.32,117.32,0,0,1,312.14,162.47Z"/><path class="cls-1" d="M178.56,325.66a188.54,188.54,0,0,1,159-147.94"/><path class="cls-1" d="M542.46,307,300.25,542.14a187.84,187.84,0,0,1-25.05-11L532.25,281.64A187.45,187.45,0,0,1,542.46,307Z"/><path class="cls-1" d="M532.25,281.64l-257,249.54A188.45,188.45,0,1,1,532.25,281.64Z"/><path class="cls-1" d="M551.24,357.27l-201,195.13a185.34,185.34,0,0,1-29.44-4.32l227-220.37A189,189,0,0,1,551.24,357.27Z"/><path class="cls-1" d="M547.79,327.71l-227,220.37a184.07,184.07,0,0,1-20.54-5.94L542.46,307A185.21,185.21,0,0,1,547.79,327.71Z"/><path class="cls-1" d="M551.37,364.42c0,104.06-84.35,188.41-188.4,188.41q-6.42,0-12.74-.43l201-195.13C551.33,359.64,551.37,362,551.37,364.42Z"/><line class="cls-1" x1="345.27" y1="162.31" x2="345.26" y2="162.31"/><path class="cls-1" d="M201.31,461.23A188.41,188.41,0,0,1,337.56,177.72a190.46,190.46,0,0,1,67.13,2.93"/></g></g></svg>