<svg xmlns="http://www.w3.org/2000/svg" viewBox="0 0 176.17 205.36"><defs><style>.cls-1{isolation:isolate;}.cls-2{opacity:0.3;mix-blend-mode:overlay;}.cls-3{fill:#c42926;}.cls-4{fill:#ea3925;}.cls-5{fill:#f5917c;}.cls-6{fill:#5b231e;}.cls-7{fill:#fff;}.cls-8{fill:none;}.cls-9{fill:#de8370;}</style></defs><title>Asset 8</title><g class="cls-1"><g id="Layer_2" data-name="Layer 2"><g id="圖層_5" data-name="圖層 5"><path class="cls-2" d="M140.91,195.74c0,5.31-23.63,9.62-52.78,9.62s-52.78-4.31-52.78-9.62,23.63-9.62,52.78-9.62S140.91,190.42,140.91,195.74Z"/><path class="cls-3" d="M96.14,146.57s-.76,5.9-.74,26.2.73,23.12.73,23.12H92.61s-.51-7.15-.63-23.39c-.12-18.77.65-25.93.65-25.93Z"/><path d="M97.41,191c2.32-.48,5.4-2.83,8.86-1.17s2.09,6.06,2.09,6.06l-15.84,0-.19-4.73A18.15,18.15,0,0,0,97.41,191Z"/><path class="cls-3" d="M80,146.57s.75,5.9.73,26.2S80,195.89,80,195.89h3.51s.52-7.15.63-23.39c.13-18.77-.65-25.93-.65-25.93Z"/><polygon class="cls-4" points="75.14 30.69 88.08 0 101.03 30.69 75.14 30.69"/><polygon class="cls-4" points="52.71 40.96 52.06 7.66 76.37 30.43 52.71 40.96"/><polygon class="cls-4" points="36.41 59.46 22.26 29.3 53.73 40.22 36.41 59.46"/><polygon class="cls-4" points="29.03 83 3.85 61.2 37.04 58.37 29.03 83"/><polygon class="cls-4" points="31.87 107.5 0 97.83 29.17 81.74 31.87 107.5"/><polygon class="cls-4" points="44.43 128.72 11.38 132.85 31.48 106.3 44.43 128.72"/><polygon class="cls-4" points="64.54 143.01 36.02 160.22 43.59 127.78 64.54 143.01"/><polygon class="cls-4" points="88.72 147.88 69.67 175.2 63.38 142.49 88.72 147.88"/><polygon class="cls-4" points="112.78 142.49 106.5 175.2 87.45 147.88 112.78 142.49"/><polygon class="cls-4" points="132.58 127.78 140.14 160.22 111.63 143.01 132.58 127.78"/><polygon class="cls-4" points="144.68 106.3 164.79 132.85 131.74 128.72 144.68 106.3"/><polygon class="cls-4" points="147 81.74 176.17 97.83 144.29 107.5 147 81.74"/><polygon class="cls-4" points="139.13 58.37 172.32 61.2 147.13 83 139.13 58.37"/><polygon class="cls-4" points="122.43 40.22 153.9 29.3 139.76 59.46 122.43 40.22"/><polygon class="cls-4" points="99.8 30.43 124.11 7.66 123.45 40.96 99.8 30.43"/><path class="cls-3" d="M154.87,150.89a15.86,15.86,0,0,0-4.37-2.72s-3.36-25-10.78-46.66a160.57,160.57,0,0,0-8.86-20.12A3.91,3.91,0,0,0,126,83.26c3.81,7.69,7.18,14.91,9.67,21.55,6.21,16.6,10.28,44.32,10.28,44.32s-3.86,2.44-3.08,3.59c1.13,1.66,3.37-.46,3.37-.46s-.49,4.2,1.24,4.43,1-3.78,1-3.78,3.1,5,4.45,3.77-2.71-4.94-2.71-4.94,3.92,2.32,4.8,2.22S156.49,152.48,154.87,150.89Z"/><path class="cls-3" d="M23.07,150.89a16,16,0,0,1,4.38-2.72s3.36-25,10.78-46.66a159.12,159.12,0,0,1,8.86-20.12A3.91,3.91,0,0,1,52,83.26c-3.82,7.69-7.18,14.91-9.67,21.55C36.11,121.41,32,149.13,32,149.13s3.87,2.44,3.09,3.59c-1.13,1.66-3.38-.46-3.38-.46s.49,4.2-1.23,4.43-1-3.78-1-3.78-3.1,5-4.45,3.77,2.71-4.94,2.71-4.94S23.87,154.06,23,154,21.45,152.48,23.07,150.89Z"/><circle class="cls-5" cx="88.08" cy="88.45" r="60.78" transform="translate(-2.55 2.62) rotate(-1.68)"/><path class="cls-6" d="M98.4,90.48c-2-.58-3.47.33-6.64.82a24.46,24.46,0,0,1-3.74.27h-.4a29.1,29.1,0,0,1-3.8-.35c-3.77-.58-6.48-1.48-7.71.36-1.33,2,1.44,4.78,4.43,6.72,3.82,2.47,10.84,2.59,15.12,0S101,91.27,98.4,90.48Z"/><path d="M64.21,73.19a4.06,4.06,0,1,1-4.06-4.06A4.06,4.06,0,0,1,64.21,73.19Z"/><path d="M118.93,73.19a4.07,4.07,0,1,1-4.07-4.06A4.06,4.06,0,0,1,118.93,73.19Z"/><path class="cls-7" d="M93.08,93.37c.23.23.56.37,1.43.26,1.08-.13,1.49-.35,1.62-.65a1.62,1.62,0,0,0,.06-.78L96,90.41a7.56,7.56,0,0,0-3.35.58s0,0,0,.09l.18,1.48A1.54,1.54,0,0,0,93.08,93.37Z"/><path class="cls-7" d="M92.06,94.1c-.22.3-.56.52-1.53.55-1.21,0-1.7-.12-1.91-.42a1.88,1.88,0,0,1-.2-.85l-.11-1.93a18,18,0,0,1,3.7-.22l.2,1.93A1.68,1.68,0,0,1,92.06,94.1Z"/><path class="cls-7" d="M89.5,98.18c-.19-.23-.48-.39-1.27-.36-1,0-1.39.19-1.53.45a1.48,1.48,0,0,0-.12.7l0,1.58a14.47,14.47,0,0,0,3,0l.06-1.58A1.37,1.37,0,0,0,89.5,98.18Z"/><path class="cls-7" d="M92.69,98.21c-.18-.19-.45-.32-1.16-.26-.88.07-1.22.24-1.34.48a1.25,1.25,0,0,0-.08.63l.1,1.41a12.61,12.61,0,0,0,2.7-.17l0-1.42A1.24,1.24,0,0,0,92.69,98.21Z"/><path class="cls-7" d="M83.48,98.14c.19-.2.46-.34,1.18-.27.91.07,1.26.24,1.39.48a1.46,1.46,0,0,1,.07.66l-.1,1.44a13.89,13.89,0,0,1-2.76-.17l0-1.46A1.27,1.27,0,0,1,83.48,98.14Z"/><path class="cls-7" d="M83.17,93.32c-.24.23-.57.38-1.45.27-1.09-.14-1.51-.36-1.64-.66a1.66,1.66,0,0,1-.06-.79l.23-1.82a7.67,7.67,0,0,1,3.4.59s0,0,0,.09l-.19,1.5A1.56,1.56,0,0,1,83.17,93.32Z"/><path class="cls-7" d="M84.14,94c.22.29.55.51,1.53.55,1.21,0,1.7-.13,1.9-.43a1.94,1.94,0,0,0,.21-.85l.1-1.93a17.86,17.86,0,0,0-3.69-.21L84,93.08A1.73,1.73,0,0,0,84.14,94Z"/><path class="cls-8" d="M98.4,90.48c-2-.58-3.47.33-6.64.82a24.46,24.46,0,0,1-3.74.27h-.4a29.1,29.1,0,0,1-3.8-.35c-3.77-.58-6.48-1.48-7.71.36-1.33,2,1.44,4.78,4.43,6.72,3.82,2.47,10.84,2.59,15.12,0S101,91.27,98.4,90.48Z"/><path d="M78.69,191c-2.32-.48-5.4-2.83-8.85-1.17s-2.1,6.06-2.1,6.06l15.84,0,.19-4.73A18.15,18.15,0,0,1,78.69,191Z"/><path class="cls-9" d="M30,106.55a60.79,60.79,0,0,0,114.38,4.72c-11.82,7.62-22,16.7-40.19,18.87C71,134.11,50.28,125,30,106.55Z"/></g></g></g></svg>