<svg version="1" xmlns="http://www.w3.org/2000/svg" width="193.333" height="193.333" viewBox="0 0 145.000000 145.000000"><path d="M67 2.7c-3.9.6-11.1 3.4-15.3 6l-3.8 2.4-5.6-1.9c-6.2-2.2-10-2.1-15.5.2-9.1 3.9-13.6 13-11.4 23.2.6 2.7.3 3.3-3.1 5.5-2 1.3-5.1 4.4-6.8 6.7-2.6 3.8-3 5.2-3 11.2 0 6 .4 7.4 3 11.1 4.1 5.8 8 8 15.7 8.8.3.1.7 4.6.7 10.2l.1 10.1-3-2.2c-4-2.8-7.3-2-11.8 2.8-6.7 7.4-8.3 13.6-5 19.8 2.3 4.2 7.9 8.9 12.3 10.4 3.1 1 4 .9 6.3-.6 1.5-.9 3.6-2.8 4.8-4.1l2.1-2.4 1.6 2.5c7.9 12 24.7 19.6 43.5 19.6 17.9 0 35.7-7.5 42.7-18 2.2-3.2 4.2-3.9 5.1-1.6.7 1.8 4.8 4.6 7.6 5.1 3.1.6 9.1-2.9 13.2-7.6 3.2-3.8 3.6-4.9 3.6-9.7 0-4.9-.5-6.1-4-10.7-5.6-7.2-8-8.4-12.8-6.1-2 1-3.9 1.9-4.1 2-.4.1-.1-17.7.3-18.1.1-.2 2.2-.5 4.5-.8 2.4-.3 5.2-1 6.3-1.6 2.9-1.5 5.8-7 5.8-10.7 0-3.9-2.7-10.1-4.6-10.9-1-.4-.6-1.6 1.6-4.8 8.8-12.8 3.4-28.3-12.8-36.6-6-3.1-17.3-3.4-21.2-.6-3.3 2.3-4 2.2-9.9-1.7-7.7-5.2-18.7-8-27.1-6.9z"/></svg>