<svg xmlns="http://www.w3.org/2000/svg" viewBox="0 0 101.58 134.82"><defs><style>.cls-1{isolation:isolate;}.cls-2{opacity:0.3;mix-blend-mode:overlay;}.cls-3{fill:#46a4c1;}.cls-4{fill:#85d5f6;}.cls-5{fill:#115763;}.cls-6{fill:#fff;}.cls-7{fill:#7bc5e3;}</style></defs><title>Asset 7</title><g class="cls-1"><g id="Layer_2" data-name="Layer 2"><g id="圖層_5" data-name="圖層 5"><path class="cls-2" d="M90.31,127.94c0,3.8-17.81,6.88-39.78,6.88s-39.78-3.08-39.78-6.88,17.81-6.88,39.78-6.88S90.31,124.14,90.31,127.94Z"/><path class="cls-3" d="M58.47,78.61s-.75,5.9-.73,26.21.72,23.12.72,23.12H55s-.52-7.16-.63-23.39c-.13-18.77.65-25.94.65-25.94Z"/><path d="M59.75,123.05c2.32-.49,5.39-2.84,8.85-1.17s2.1,6.06,2.1,6.06l-15.84,0-.19-4.72A18.15,18.15,0,0,0,59.75,123.05Z"/><path class="cls-3" d="M69.6,25S82.4,47.6,87.53,63.92a230,230,0,0,1,8.8,39.83,16.16,16.16,0,0,1,4.3,2.83c1.58,1.64.9,3,0,3.08s-4.74-2.35-4.74-2.35,3.95,3.77,2.57,5-4.35-3.88-4.35-3.88.64,4-1.08,3.75-1.12-4.46-1.12-4.46-2.3,2.06-3.39.37c-.75-1.16,3.18-3.51,3.18-3.51s-2.58-20.73-8.37-37.48C78.31,52.53,65.46,27,65.46,27Z"/><path class="cls-3" d="M32,26.82S19.17,49.4,14.05,65.71a230,230,0,0,0-8.8,39.84A15.89,15.89,0,0,0,1,108.38c-1.58,1.63-.9,3,0,3.07s4.74-2.34,4.74-2.34-4,3.77-2.58,5,4.35-3.88,4.35-3.88-.63,4,1.09,3.75,1.12-4.45,1.12-4.45,2.3,2.06,3.38.37c.75-1.17-3.17-3.51-3.17-3.51s2.58-20.73,8.37-37.48c5-14.58,17.87-40.09,17.87-40.09Z"/><path class="cls-3" d="M42.3,78.61s.76,5.9.74,26.21-.73,23.12-.73,23.12h3.52s.51-7.16.62-23.39c.13-18.77-.64-25.94-.64-25.94Z"/><path d="M41,123.05c-2.32-.49-5.4-2.84-8.86-1.17s-2.09,6.06-2.09,6.06l15.84,0,.19-4.72A18.16,18.16,0,0,1,41,123.05Z"/><path class="cls-4" d="M94.5,32.83C88.56,9.52,77.56.56,76.88,0l0,0s2.28,10-5.56,12.15c-4.36,1.21-8.17.54-12,0a46.05,46.05,0,0,0-4.86-.82h-.06a47.54,47.54,0,0,0-5.23-.3,46.24,46.24,0,0,0,0,92.48A47,47,0,0,0,74,96.45h0C102,80,98.73,49.42,94.5,32.83Z"/><path class="cls-5" d="M59.07,53.36c-1.61-.49-2.87.26-5.48.66a19.09,19.09,0,0,1-3.08.23h-.34A24.6,24.6,0,0,1,47,54c-3.11-.48-5.34-1.23-6.36.29s1.19,3.94,3.66,5.54c3.14,2,8.94,2.14,12.46,0S61.21,54,59.07,53.36Z"/><path d="M30.87,39.09a3.36,3.36,0,1,1-3.35-3.35A3.35,3.35,0,0,1,30.87,39.09Z"/><path d="M76,39.09a3.35,3.35,0,1,1-3.35-3.35A3.35,3.35,0,0,1,76,39.09Z"/><path class="cls-6" d="M47.2,56.39c.19.24.47.41,1.27.41,1,0,1.4-.16,1.56-.41a1.5,1.5,0,0,0,.14-.71V54.24A24.6,24.6,0,0,1,47,54v1.66A1.42,1.42,0,0,0,47.2,56.39Z"/><path class="cls-6" d="M50.61,56.39c.19.24.47.41,1.28.41,1,0,1.4-.16,1.56-.41a1.65,1.65,0,0,0,.14-.71V54a19.09,19.09,0,0,1-3.08.23h0v1.37A1.38,1.38,0,0,0,50.61,56.39Z"/><path class="cls-7" d="M6.54,75.37a46.25,46.25,0,0,0,42.58,28.18A47,47,0,0,0,74,96.45h0C84,90.56,90,82.85,93.42,74.62A59.73,59.73,0,0,1,62.11,88C43.39,90.49,22.56,86.18,6.54,75.37Z"/></g></g></g></svg>